# xmcd CD database file
# Copyright (C) 1993-1998 Ti Kan
#
# Track frame offsets:
#	182
#	18692
#	36265
#	55137
#	75812
#	99022
#	118147
#	141405
#	158435
#	178350
#
# Disc length: 2603 seconds
#
# Revision: 1
# Processed by: cddbd v1.4b41PL1 Copyright (c) Steve Scherf et al.
# Submitted via: NotifyCDPlayer(CDDB) 1.51.3
#
DISCID=790a290a
DTITLE=Michael Martin Murphey - America's Horses
DYEAR=1900
DGENRE=
TTITLE0=Quarter Horse Rider (America's Horse)
TTITLE1=Ponies
TTITLE2=Tennessee Stud
TTITLE3=Running Shadow
TTITLE4=Wildfire
TTITLE5=The Running Blood
TTITLE6=See How All The Horses Come Dancing
TTITLE7=Palomino Days
TTITLE8=Run For The Roses
TTITLE9=The Pony Man
EXTD=
EXTT0=
EXTT1=
EXTT2=
EXTT3=
EXTT4=
EXTT5=
EXTT6=
EXTT7=
EXTT8=
EXTT9=
PLAYORDER=
